<svg xmlns="http://www.w3.org/2000/svg" viewBox="0 0 24 24">
  <path d="M19.14 12.94a7.07 7.07 0 0 0 .05-.94 7.07 7.07 0 0 0-.05-.94l2.11-1.65a.5.5 0 0 0 .12-.65l-2-3.46a.5.5 0 0 0-.6-.22l-2.49 1a7.28 7.28 0 0 0-1.63-.94l-.38-2.65A.5.5 0 0 0 13.5 2h-3a.5.5 0 0 0-.5.42l-.38 2.65a7.28 7.28 0 0 0-1.63.94l-2.49-1a.5.5 0 0 0-.6.22l-2 3.46a.5.5 0 0 0 .12.65l2.11 1.65a7.07 7.07 0 0 0-.05.94 7.07 7.07 0 0 0 .05.94L2.75 14.59a.5.5 0 0 0-.12.65l2 3.46a.5.5 0 0 0 .6.22l2.49-1a7.28 7.28 0 0 0 1.63.94l.38 2.65a.5.5 0 0 0 .5.42h3a.5.5 0 0 0 .5-.42l.38-2.65a7.28 7.28 0 0 0 1.63-.94l2.49 1a.5.5 0 0 0 .6-.22l2-3.46a.5.5 0 0 0-.12-.65l-2.11-1.65Zm-7.14 2.56A3.5 3.5 0 1 1 15.5 12a3.5 3.5 0 0 1-3.5 3.5Z"/>
</svg>
